{"title":"Daddy Day Camp 2007 720p WEB-DL AAC2.0 H264-DMG.mkv","uid":13888891,"size":1361530166,"categoryP":"video","categoryS":"hd___movies","magnet":"?xt=urn:btih:da8e6904a17e032a5447520c0d91956d4ea53d6f&amp;dn=Daddy+Day+Camp+2007+720p+WEB-DL+AAC2.0+H264-DMG.mkv&amp;tr=udp%3A%2F%2Ftracker.leechers-paradise.org%3A6969&amp;tr=udp%3A%2F%2Fzer0day.ch%3A1337&amp;tr=udp%3A%2F%2Fopen.demonii.com%3A1337&amp;tr=udp%3A%2F%2Ftracker.coppersurfer.tk%3A6969&amp;tr=udp%3A%2F%2Fexodus.desync.com%3A6969","seeders":0,"leechers":1,"uploader":"dustlab","files":1,"time":1458204607,"description":"Movie name                               : Daddy Day Camp 2007 720p WEB-DL AAC2.0 H264-DMG\r\nFile size                                : 1.27 GiB\r\nDuration                                 : 1h 29mn\r\nSource                                   : iTunes\r\n\r\nVideo\r\nID                                       : 1\r\nFormat                                   : AVC\r\nFormat/Info                              : Advanced Video Codec\r\nFormat profile                           :   \r\nFormat settings, CABAC                   : Yes\r\nFormat settings, ReFrames                : 6 frames\r\nCodec ID                                 : V_MPEG4/ISO/AVC\r\nDuration                                 : 1h 29mn\r\nBit rate                                 : 1 880 Kbps\r\nWidth                                    : 1 280 pixels\r\nHeight                                   : 720 pixels\r\nDisplay aspect ratio                     : 16:9\r\nFrame rate mode                          : Constant\r\nFrame rate                               : 23.976 fps\r\nColor space                              : YUV\r\nChroma subsampling                       : 4:2:0\r\nBit depth                                : 8 bits\r\nScan type                                : Progressive\r\nBits/(Pixel*Frame)                       : 0.085\r\nStream size                              : 1.17 GiB (92%)\r\nTitle                                    : Daddy Day Camp 2007 720p WEB-DL AAC2.0 H264-DMG\r\nLanguage                                 : English\r\nDefault                                  : Yes\r\nForced                                   : No\r\nColor range                              : Limited\r\nColor primaries                          : BT.709\r\nTransfer characteristics                 : BT.709\r\nMatrix coefficients                      : BT.709\r\n\r\nAudio\r\nID                                       : 2\r\nFormat                                   : AAC\r\nFormat/Info                              : Advanced Audio Codec\r\nFormat profile                           : LC\r\nCodec ID                                 : A_AAC\r\nDuration                                 : 1h 29mn\r\nBit rate                                 : 158 Kbps\r\nChannel(s)                               : 2 channels\r\nChannel positions                        : Front: L R\r\nSampling rate                            : 48.0 KHz\r\nFrame rate                               : 46.875 fps (1024 spf)\r\nCompression mode                         : Lossy\r\nStream size                              : 100 MiB (8%)\r\nTitle                                    : Daddy Day Camp 2007 720p WEB-DL AAC2.0 H264-DMG\r\nLanguage                                 : English\r\nDefault                                  : Yes\r\nForced                                   : No\r\n\r\nMenu\r\n00:00:00.000                             : en:1\r\n00:06:17.000                             : en:2\r\n00:12:27.000                             : en:3\r\n00:18:29.000                             : en:4\r\n00:25:49.000                             : en:5\r\n00:31:15.000                             : en:6\r\n00:37:25.000                             : en:7\r\n00:43:53.000                             : en:8\r\n00:50:11.000                             : en:9\r\n00:57:15.000                             : en:10\r\n01:04:29.000                             : en:11\r\n01:11:43.000                             : en:12\r\n01:14:40.000                             : en:13\r\n01:18:05.000                             : en:14\r\n01:20:54.000                             : en:15\r\n01:24:10.000                             : en:16\r\n\r\nScreenshots\r\n \nhttp://imgchicken.com/images/31643582250741800731.jpg \nhttp://imgchicken.com/images/64207504478104850296.jpg \nhttp://imgchicken.com/images/30607883943818359739.jpg","torrent":{"xt":"urn:btih:da8e6904a17e032a5447520c0d91956d4ea53d6f","amp;dn":"Daddy+Day+Camp+2007+720p+WEB-DL+AAC2.0+H264-DMG.mkv","amp;tr":["udp%3A%2F%2Ftracker.leechers-paradise.org%3A6969","udp%3A%2F%2Fzer0day.ch%3A1337","udp%3A%2F%2Fopen.demonii.com%3A1337","udp%3A%2F%2Ftracker.coppersurfer.tk%3A6969","udp%3A%2F%2Fexodus.desync.com%3A6969"],"infoHash":"da8e6904a17e032a5447520c0d91956d4ea53d6f","infoHashBuffer":{"type":"Buffer","data":[218,142,105,4,161,126,3,42,84,71,82,12,13,145,149,109,78,165,61,111]},"announce":[],"urlList":[]}}